:version 1.10
:name ASF
:units
  mass 1
  length 1
  angle deg
:documentation
  ASF file generated by Kaydara
:root
  axis xyz
  order  tx ty tz rx ry rz
  position 0 0 0
  orientation 0 0 0
:bonedata
  begin
    id 1
    name RightUpLegDummy
    direction -0.65628 -0.754516 0.00165102
    length 4.76918
    axis 0 0 0 xyz
  end
  begin
    id 2
    name RightUpLeg
    direction -0.145584 -0.923362 0.355256
    length 17.9961
    axis -24.7611 -13.1006 1.78531 xyz
    dof rx ry rz
  end
  begin
    id 3
    name RightLeg
    direction 0.263379 0.172355 -0.949171
    length 13.3386
    axis 89.6202 -21.1929 12.3855 xyz
    dof rx ry rz
  end
  begin
    id 4
    name RightFoot
    direction 0.224283 -0.968777 -0.105675
    length 5.86697
    axis 56.995 -39.6905 17.3365 xyz
    dof rx ry rz
  end
  begin
    id 5
    name RightToes
    direction -0.0806345 -0.9037 0.420506
    length 4.75197
    axis 146.825 -39.7828 17.6019 xyz
    dof rx ry rz
  end
  begin
    id 6
    name SpineDummy
    direction -3.39852e-014 1 9.33296e-014
    length 8.13779
    axis 0 0 0 xyz
  end
  begin
    id 7
    name Spine
    direction -0.156609 0.733703 0.661176
    length 7.14978
    axis 41.2365 5.68757 17.0844 xyz
    dof rx ry rz
  end
  begin
    id 8
    name Spine1
    direction 0 0 0
    length 0
    axis 42.8809 47.8308 -3.36039 xyz
    dof rx ry rz
  end
  begin
    id 9
    name HEadDummy
    direction 0.546431 0.701947 0.456819
    length 3.55512
    axis 42.8809 47.8308 -3.36039 xyz
  end
  begin
    id 10
    name HEad
    direction 0.23444 0.828559 0.508457
    length 7.35827
    axis 51.1864 49.2662 27.4903 xyz
    dof rx ry rz
  end
  begin
    id 11
    name LeftShoulder1Dummy
    direction 0.431183 0.475873 -0.766568
    length 2.49352
    axis 42.8809 47.8308 -3.36039 xyz
  end
  begin
    id 12
    name LeftShoulder1
    direction 0.268187 -0.383402 -0.883786
    length 4.48604
    axis -119.517 0.106469 35.1736 xyz
    dof rx ry rz
  end
  begin
    id 13
    name LeftArm
    direction 0.380567 -0.703221 -0.600541
    length 10.1142
    axis -5.41825 36.2925 7.8293 xyz
    dof rx ry rz
  end
  begin
    id 14
    name LeftForeArm
    direction 0.541071 -0.732356 -0.413396
    length 9.39839
    axis 4.65387 33.7604 7.81644 xyz
    dof rx ry rz
  end
  begin
    id 15
    name LeftHand
    direction 0.847511 -0.389379 -0.360707
    length 3.66142
    axis 7.65593 21.1436 -24.6758 xyz
    dof rx ry rz
  end
  begin
    id 16
    name RightShoulderDummy
    direction -0.692546 0.541855 0.476208
    length 2.49352
    axis 42.8809 47.8308 -3.36039 xyz
  end
  begin
    id 17
    name RightShoulder
    direction -0.870808 -0.316653 0.376065
    length 4.48602
    axis 141.571 51.133 -100.254 xyz
    dof rx ry rz
  end
  begin
    id 18
    name RightArm
    direction 0.366897 -0.87275 0.322015
    length 10.1142
    axis 92.3258 71.2036 138.917 xyz
    dof rx ry rz
  end
  begin
    id 19
    name RightForeArm
    direction 0.702487 -0.694568 0.155197
    length 9.39835
    axis 153.863 41.5092 -176.604 xyz
    dof rx ry rz
  end
  begin
    id 20
    name RightHand
    direction 0.79502 -0.601276 0.0800636
    length 3.66142
    axis 154.247 4.59222 142.9 xyz
    dof rx ry rz
  end
  begin
    id 21
    name LeftUpLegDummy
    direction 0.65628 -0.754516 0.00165102
    length 4.76919
    axis 0 0 0 xyz
  end
  begin
    id 22
    name LeftUpLeg
    direction -0.1277 -0.689368 0.713067
    length 17.9961
    axis -48.3385 -17.8675 0.791927 xyz
    dof rx ry rz
  end
  begin
    id 23
    name LeftLeg
    direction 0.109849 -0.991246 -0.0732378
    length 13.3386
    axis -2.05791 -7.30784 1.72042 xyz
    dof rx ry rz
  end
  begin
    id 24
    name LeftFoot
    direction 0.0448355 -0.272614 0.961078
    length 5.86697
    axis -18.7733 -7.89606 10.2113 xyz
    dof rx ry rz
  end
  begin
    id 25
    name LeftToes
    direction -0.18506 0.293668 0.937823
    length 4.75197
    axis 71.2267 -7.89606 10.2113 xyz
    dof rx ry rz
  end
:hierarchy
  begin
    root RightUpLegDummy SpineDummy LeftUpLegDummy
    RightUpLegDummy RightUpLeg
    RightUpLeg RightLeg
    RightLeg RightFoot
    RightFoot RightToes
    SpineDummy Spine
    Spine Spine1
    Spine1 HEadDummy LeftShoulder1Dummy RightShoulderDummy
    HEadDummy HEad
    LeftShoulder1Dummy LeftShoulder1
    LeftShoulder1 LeftArm
    LeftArm LeftForeArm
    LeftForeArm LeftHand
    RightShoulderDummy RightShoulder
    RightShoulder RightArm
    RightArm RightForeArm
    RightForeArm RightHand
    LeftUpLegDummy LeftUpLeg
    LeftUpLeg LeftLeg
    LeftLeg LeftFoot
    LeftFoot LeftToes
  end

:SAMPLES-PER-SECOND 30
:FULLY-SPECIFIED
:DEGREES
52
root  -10.3779 36.3911 -3.08909 170.656 30.3054 172.811
RightUpLeg  -3.77354 31.9135 5.42867
RightLeg  -67.2474 -13.846 -0.991843
RightFoot  17.61 4.83789 -15.4425
RightToes  -1.27222e-014 -6.36111e-015 6.36111e-015
Spine  -24.3637 -21.2827 -9.35411
Spine1  1.72347 -17.9388 57.1262
HEad  -1.30535 15.0054 -17.0455
LeftShoulder1  6.36111e-015 -1.33558e-015 6.49777e-015
LeftArm  20.1177 -26.0636 -42.6369
LeftForeArm  -81.1899 -47.5097 59.8805
LeftHand  -1.27055 -2.30628 -6.0878
RightShoulder  -4.77083e-015 -6.36111e-015 -3.18055e-015
RightArm  72.8167 -18.4464 -71.7168
RightForeArm  -55.0829 14.2999 -43.2892
RightHand  1.93116 -3.45854 -8.21417
LeftUpLeg  28.841 12.3679 21.4196
LeftLeg  25.4502 7.08667 7.5141
LeftFoot  3.56075 2.56113 -7.74903
LeftToes  1.27222e-014 -5.20697e-012 1.80337e-011
53
root  -10.9392 36.5047 -3.71911 170.002 30.6235 170.175
RightUpLeg  -4.13219 35.9188 2.1974
RightLeg  -67.8556 -14.5633 0.39467
RightFoot  16.3822 4.19094 -14.1482
RightToes  -1.27222e-014 -6.36111e-015 6.36111e-015
Spine  -26.401 -23.3595 -11.0043
Spine1  1.171 -18.8571 56.0339
HEad  1.21758 15.0882 -16.436
LeftShoulder1  6.36111e-015 -1.33558e-015 6.49777e-015
LeftArm  16.2929 -27.5323 -35.8497
LeftForeArm  -82.0359 -47.6929 62.3346
LeftHand  -1.22436 -2.14162 -6.22731
RightShoulder  -4.77083e-015 -6.36111e-015 -3.18055e-015
RightArm  68.6833 -11.7283 -72.8941
RightForeArm  -59.8632 14.0103 -46.4261
RightHand  1.89079 -4.23633 -6.86096
LeftUpLeg  35.1454 11.7902 22.8877
LeftLeg  13.799 9.22181 5.06607
LeftFoot  4.04285 2.31635 -6.916
LeftToes  1.27222e-014 -5.20697e-012 1.80337e-011
54
root  -11.5305 36.2579 -4.33003 169.216 31.3409 167.414
RightUpLeg  -6.88166 38.2424 -2.4147
RightLeg  -65.8819 -14.5542 0.0550372
RightFoot  14.2503 3.40482 -12.3433
RightToes  -1.27222e-014 -6.36111e-015 6.36111e-015
Spine  -28.2465 -25.1324 -12.3462
Spine1  0.358446 -19.6132 53.9864
HEad  2.52659 15.1689 -16
LeftShoulder1  6.36111e-015 -1.33558e-015 6.49777e-015
LeftArm  12.2325 -28.6286 -28.562
LeftForeArm  -79.883 -48.9283 62.6668
LeftHand  -0.970509 -1.43022 -5.95256
RightShoulder  -4.77083e-015 -6.36111e-015 -3.18055e-015
RightArm  62.6429 -5.21916 -72.7712
RightForeArm  -60.4748 14.3709 -47.8771
RightHand  1.8052 -4.79043 -5.63364
LeftUpLeg  41.4978 10.5728 22.8136
LeftLeg  2.74206 5.70286 1.17959
LeftFoot  5.15044 3.59551 -10.4042
LeftToes  1.27222e-014 -5.20697e-012 1.80337e-011
55
root  -12.2313 35.5906 -4.87307 167.739 32.2523 164.739
RightUpLeg  -11.2945 39.257 -7.64779
RightLeg  -61.0373 -13.7615 -1.71745
RightFoot  12.2533 3.06237 -11.2262
RightToes  -1.27222e-014 -6.36111e-015 6.36111e-015
Spine  -28.2319 -26.2673 -13.4122
Spine1  -1.80698 -19.9343 51.9811
HEad  2.6721 15.1715 -15.6764
LeftShoulder1  6.36111e-015 -1.33558e-015 6.49777e-015
LeftArm  8.47181 -30.3999 -21.366
LeftForeArm  -73.2512 -50.4137 56.4956
LeftHand  -0.555916 -0.367215 -5.17624
RightShoulder  -4.77083e-015 -6.36111e-015 -3.18055e-015
RightArm  55.4805 1.77258 -71.2844
RightForeArm  -57.0096 15.1736 -46.6836
RightHand  1.56605 -4.57502 -4.52145
LeftUpLeg  47.6232 8.37584 20.4139
LeftLeg  -4.94747 -4.38968 -0.983673
LeftFoot  1.63764 7.0616 -22.4236
LeftToes  1.27222e-014 -5.20697e-012 1.80337e-011
